<?xml version="1.0" encoding="UTF-8" standalone="no"?>
<!-- Generator: Adobe Illustrator 23.0.2, SVG Export Plug-In . SVG Version: 6.00 Build 0)  -->

<svg
   xmlns:dc="http://purl.org/dc/elements/1.1/"
   xmlns:cc="http://creativecommons.org/ns#"
   xmlns:rdf="http://www.w3.org/1999/02/22-rdf-syntax-ns#"
   xmlns:svg="http://www.w3.org/2000/svg"
   xmlns="http://www.w3.org/2000/svg"
   xmlns:sodipodi="http://sodipodi.sourceforge.net/DTD/sodipodi-0.dtd"
   xmlns:inkscape="http://www.inkscape.org/namespaces/inkscape"
   id="Layer_1"
   x="0px"
   y="0px"
   viewBox="0 0 487.70001 180.8"
   xml:space="preserve"
   version="1.1"
   sodipodi:docname="tips1-chuyen-huong2.svg"
   width="487.70001"
   height="180.8"
   inkscape:version="0.92.4 (5da689c313, 2019-01-14)"><metadata
   id="metadata1025"><rdf:RDF><cc:Work
       rdf:about=""><dc:format>image/svg+xml</dc:format><dc:type
         rdf:resource="http://purl.org/dc/dcmitype/StillImage" /><dc:title></dc:title></cc:Work></rdf:RDF></metadata><defs
   id="defs1023" /><sodipodi:namedview
   pagecolor="#ffffff"
   bordercolor="#666666"
   borderopacity="1"
   objecttolerance="10"
   gridtolerance="10"
   guidetolerance="10"
   inkscape:pageopacity="0"
   inkscape:pageshadow="2"
   inkscape:window-width="1366"
   inkscape:window-height="715"
   id="namedview1021"
   showgrid="false"
   fit-margin-top="0"
   fit-margin-left="0"
   fit-margin-right="0"
   fit-margin-bottom="0"
   inkscape:zoom="1.621316"
   inkscape:cx="219.14031"
   inkscape:cy="92.209677"
   inkscape:window-x="-8"
   inkscape:window-y="-8"
   inkscape:window-maximized="1"
   inkscape:current-layer="Layer_1" />
<style
   type="text/css"
   id="style921">
	.st0{fill:#D5E0E0;}
	.st1{fill:#FFFFFF;}
	.st2{fill:#565E66;}
	.st3{fill:#4DBDEB;}
	.st4{fill:none;stroke:#B1B8B9;stroke-width:6;stroke-linecap:round;stroke-linejoin:round;}
	.st5{fill:none;stroke:#565E66;stroke-width:6;stroke-linecap:round;stroke-linejoin:round;}
	.st6{fill:#4DBCEA;}
	.st7{enable-background:new    ;}
	.st8{fill:#272733;}
	.st9{fill:#FC4949;}
	.st10{fill:#009CEB;}
</style>
<path
   class="st0"
   d="M 160.4,145.7 H 5.6 c -3.1,0 -5.6,-2.5 -5.6,-5.6 0,0 0,0 0,0 V 5.7 C 0,2.5 2.5,0 5.6,0 c 0,0 0,0 0,0 h 154.8 c 3.1,0 5.6,2.5 5.6,5.7 v 134.5 c 0.1,3 -2.5,5.5 -5.6,5.5 0,0 0,0 0,0 z"
   id="path923"
   inkscape:connector-curvature="0"
   style="fill:#d5e0e0" />
<path
   class="st1"
   d="M 146.3,136.1 H 19.2 c -4.1,-0.3 -7.4,-3.8 -7.3,-7.9 V 44.1 c 0,-4.4 3.5,-7.9 7.9,-7.9 v 0 h 126.5 c 4.4,0 7.9,3.5 7.9,7.9 v 0 84.2 c -0.3,4.2 -3.7,7.6 -7.9,7.8 z"
   id="path925"
   inkscape:connector-curvature="0"
   style="fill:#ffffff" />
<circle
   class="st2"
   cx="15.900001"
   cy="17"
   r="3.5"
   id="circle927"
   style="fill:#565e66" />
<circle
   class="st2"
   cx="27.700001"
   cy="17"
   r="3.5"
   id="circle929"
   style="fill:#565e66" />
<circle
   class="st2"
   cx="40"
   cy="17"
   r="3.5"
   id="circle931"
   style="fill:#565e66" />
<rect
   x="23.1"
   y="45.200001"
   class="st3"
   width="119.2"
   height="31.9"
   id="rect933"
   style="fill:#4dbdeb" />
<rect
   x="23.1"
   y="88.699997"
   class="st3"
   width="37.299999"
   height="37.299999"
   id="rect935"
   style="fill:#4dbdeb" />
<line
   class="st4"
   x1="72.299995"
   y1="90.900002"
   x2="138.39999"
   y2="90.900002"
   id="line937"
   style="fill:none;stroke:#b1b8b9;stroke-width:6;stroke-linecap:round;stroke-linejoin:round" />
<line
   class="st4"
   x1="72.299995"
   y1="107.9"
   x2="138.39999"
   y2="107.9"
   id="line939"
   style="fill:none;stroke:#b1b8b9;stroke-width:6;stroke-linecap:round;stroke-linejoin:round" />
<line
   class="st4"
   x1="72.299995"
   y1="122.6"
   x2="138.39999"
   y2="122.6"
   id="line941"
   style="fill:none;stroke:#b1b8b9;stroke-width:6;stroke-linecap:round;stroke-linejoin:round" />
<line
   class="st5"
   x1="67.799995"
   y1="17"
   x2="138.89999"
   y2="17"
   id="line943"
   style="fill:none;stroke:#565e66;stroke-width:6;stroke-linecap:round;stroke-linejoin:round" />
<g
   id="Final-Iteration"
   transform="translate(-1.3,-1)">
	<g
   id="Iteration-4_Link-Intersect">
		<g
   id="process-icon-arrow">
			<g
   id="Shape">
				<path
   class="st6"
   d="m 188.6,80.8 c -1,0 -1.8,-0.8 -1.8,-1.8 0,-0.6 0.3,-1.2 0.8,-1.6 4.2,-2.7 8.5,-5.2 13.1,-7.3 0.9,-0.5 2,-0.2 2.5,0.7 0.5,0.9 0.2,2 -0.7,2.5 -0.1,0 -0.1,0.1 -0.2,0.1 -4.4,2 -8.6,4.4 -12.6,7 -0.4,0.3 -0.8,0.4 -1.1,0.4 z m 98.1,-6.7 c -0.3,0 -0.5,-0.1 -0.8,-0.2 -4.3,-2.1 -8.8,-3.8 -13.4,-5.2 -1,-0.2 -1.6,-1.2 -1.4,-2.2 0.2,-1 1.2,-1.6 2.2,-1.4 0.1,0 0.2,0 0.2,0.1 4.8,1.5 9.4,3.3 13.9,5.4 0.9,0.4 1.3,1.6 0.8,2.5 -0.2,0.6 -0.8,1 -1.5,1 z m -71.6,-5.7 c -1,0 -1.8,-0.8 -1.8,-1.8 0,-0.8 0.5,-1.5 1.3,-1.8 4.8,-1.4 9.7,-2.5 14.6,-3.2 1,-0.1 1.9,0.6 2.1,1.6 0.1,1 -0.6,1.9 -1.6,2.1 v 0 c -4.8,0.7 -9.5,1.7 -14.1,3.1 -0.1,0 -0.3,0 -0.5,0 z m 43.6,-3 h -0.3 c -4.8,-0.7 -9.6,-1.1 -14.4,-1.1 -1,-0.1 -1.8,-1 -1.7,-2 0.1,-0.9 0.8,-1.6 1.7,-1.7 v 0 c 5,0 10,0.4 14.9,1.2 1,0.2 1.7,1.1 1.5,2.1 -0.1,0.9 -0.8,1.5 -1.7,1.5 z"
   id="path945"
   inkscape:connector-curvature="0"
   style="fill:#4dbcea" />
			</g>
			<g
   id="Shape-2">
				<path
   class="st6"
   d="m 305.8,84.3 h -14.9 c -1,-0.1 -1.8,-1 -1.7,-2 0.1,-0.9 0.8,-1.6 1.7,-1.7 h 10 L 298.1,71 c -0.2,-1 0.4,-2 1.4,-2.2 0.9,-0.2 1.8,0.3 2.1,1.2 z"
   id="path948"
   inkscape:connector-curvature="0"
   style="fill:#4dbcea" />
			</g>
		</g>
	</g>
</g>
<path
   class="st0"
   d="M 482.1,145.7 H 327.3 c -3.1,0 -5.6,-2.5 -5.6,-5.6 0,0 0,0 0,0 V 5.7 c 0,-3.1 2.5,-5.6 5.6,-5.7 h 154.8 c 3.1,0 5.6,2.5 5.6,5.7 v 134.5 c 0,3 -2.5,5.5 -5.6,5.5 0,0 0,0 0,0 z"
   id="path954"
   inkscape:connector-curvature="0"
   style="fill:#d5e0e0" />
<path
   class="st1"
   d="M 467.9,136.1 H 340.8 c -4.1,-0.3 -7.4,-3.8 -7.4,-7.9 V 44.1 c 0,-4.4 3.5,-7.9 7.9,-7.9 v 0 h 126.5 c 4.4,0 7.9,3.5 7.9,7.9 v 0 0 84.2 c -0.1,4.2 -3.5,7.6 -7.8,7.8 z"
   id="path956"
   inkscape:connector-curvature="0"
   style="fill:#ffffff" />
<circle
   class="st2"
   cx="337.60001"
   cy="17"
   r="3.5"
   id="circle958"
   style="fill:#565e66" />
<circle
   class="st2"
   cx="349.30002"
   cy="17"
   r="3.5"
   id="circle960"
   style="fill:#565e66" />
<circle
   class="st2"
   cx="361.60001"
   cy="17"
   r="3.5"
   id="circle962"
   style="fill:#565e66" />
<rect
   x="344.80002"
   y="45.200001"
   class="st3"
   width="119.2"
   height="31.9"
   id="rect964"
   style="fill:#4dbdeb" />
<rect
   x="344.70001"
   y="88.699997"
   class="st3"
   width="37.299999"
   height="37.299999"
   id="rect966"
   style="fill:#4dbdeb" />
<line
   class="st4"
   x1="393.90002"
   y1="90.900002"
   x2="460"
   y2="90.900002"
   id="line968"
   style="fill:none;stroke:#b1b8b9;stroke-width:6;stroke-linecap:round;stroke-linejoin:round" />
<line
   class="st4"
   x1="393.90002"
   y1="107.9"
   x2="460"
   y2="107.9"
   id="line970"
   style="fill:none;stroke:#b1b8b9;stroke-width:6;stroke-linecap:round;stroke-linejoin:round" />
<line
   class="st4"
   x1="393.90002"
   y1="122.6"
   x2="460"
   y2="122.6"
   id="line972"
   style="fill:none;stroke:#b1b8b9;stroke-width:6;stroke-linecap:round;stroke-linejoin:round" />
<line
   class="st5"
   x1="389.40002"
   y1="17"
   x2="460.60001"
   y2="17"
   id="line974"
   style="fill:none;stroke:#565e66;stroke-width:6;stroke-linecap:round;stroke-linejoin:round" />
<g
   class="st7"
   id="g990"
   style="enable-background:new"
   transform="translate(-1.3,-1)">
	<path
   class="st8"
   d="m 58.9,170.5 c 0,1.1 -0.2,2.2 -0.5,3.1 -0.3,0.9 -0.9,1.8 -1.5,2.4 -0.7,0.7 -1.4,1.2 -2.3,1.6 -0.9,0.4 -1.9,0.6 -3,0.6 -1.1,0 -2.1,-0.2 -3,-0.6 -0.9,-0.4 -1.7,-0.9 -2.3,-1.6 -0.7,-0.7 -1.2,-1.5 -1.5,-2.4 -0.3,-0.9 -0.5,-2 -0.5,-3.1 0,-1.1 0.2,-2.2 0.5,-3.1 0.4,-0.9 0.9,-1.8 1.5,-2.4 0.7,-0.7 1.4,-1.2 2.3,-1.6 0.9,-0.4 1.9,-0.6 3,-0.6 1.1,0 2.1,0.2 3,0.6 0.9,0.4 1.7,0.9 2.3,1.6 0.7,0.7 1.2,1.5 1.5,2.4 0.3,0.9 0.5,2 0.5,3.1 z m -2.1,0 c 0,-0.9 -0.1,-1.8 -0.4,-2.5 -0.3,-0.7 -0.6,-1.4 -1.1,-1.9 -0.5,-0.5 -1,-0.9 -1.7,-1.2 -0.7,-0.3 -1.4,-0.4 -2.2,-0.4 -0.8,0 -1.5,0.1 -2.2,0.4 -0.7,0.3 -1.2,0.7 -1.7,1.2 -0.5,0.5 -0.8,1.1 -1.1,1.9 -0.3,0.8 -0.4,1.6 -0.4,2.5 0,0.9 0.1,1.8 0.4,2.5 0.3,0.7 0.6,1.4 1.1,1.9 0.5,0.5 1,0.9 1.7,1.2 0.7,0.3 1.4,0.4 2.2,0.4 0.8,0 1.5,-0.1 2.2,-0.4 0.7,-0.3 1.2,-0.7 1.7,-1.2 0.5,-0.5 0.8,-1.1 1.1,-1.9 0.3,-0.7 0.4,-1.6 0.4,-2.5 z"
   id="path976"
   inkscape:connector-curvature="0"
   style="fill:#272733" />
	<path
   class="st8"
   d="M 63.1,162.6 V 178 h -1.9 v -15.5 h 1.9 z"
   id="path978"
   inkscape:connector-curvature="0"
   style="fill:#272733" />
	<path
   class="st8"
   d="M 74.9,162.6 V 178 h -1.1 c -0.3,0 -0.4,-0.1 -0.5,-0.4 l -0.2,-1.3 c -0.5,0.5 -1,1 -1.6,1.3 -0.6,0.3 -1.3,0.5 -2,0.5 -0.6,0 -1.2,-0.1 -1.7,-0.4 -0.5,-0.2 -0.9,-0.6 -1.3,-1 -0.4,-0.5 -0.6,-1 -0.8,-1.7 -0.2,-0.7 -0.3,-1.5 -0.3,-2.3 0,-0.8 0.1,-1.5 0.3,-2.2 0.2,-0.7 0.5,-1.3 0.9,-1.8 0.4,-0.5 0.9,-0.9 1.4,-1.2 0.6,-0.3 1.2,-0.4 1.9,-0.4 0.7,0 1.2,0.1 1.7,0.3 0.5,0.2 0.9,0.5 1.2,0.9 v -5.9 h 2.1 z m -1.8,7.3 c -0.4,-0.5 -0.7,-0.8 -1.1,-1 -0.4,-0.2 -0.9,-0.3 -1.4,-0.3 -1,0 -1.7,0.4 -2.3,1.1 -0.5,0.7 -0.8,1.7 -0.8,3 0,0.7 0.1,1.3 0.2,1.8 0.1,0.5 0.3,0.9 0.5,1.2 0.2,0.3 0.5,0.6 0.9,0.7 0.3,0.1 0.7,0.2 1.1,0.2 0.6,0 1.2,-0.1 1.6,-0.4 0.5,-0.3 0.9,-0.7 1.3,-1.2 z"
   id="path980"
   inkscape:connector-curvature="0"
   style="fill:#272733" />
	<path
   class="st8"
   d="m 85.1,169 c 0.4,-0.6 1,-1 1.6,-1.3 0.6,-0.3 1.3,-0.5 2,-0.5 0.6,0 1.2,0.1 1.7,0.4 0.5,0.3 0.9,0.6 1.3,1 0.4,0.4 0.6,1 0.8,1.7 0.2,0.7 0.3,1.5 0.3,2.3 0,0.8 -0.1,1.5 -0.3,2.2 -0.2,0.7 -0.5,1.3 -0.9,1.8 -0.4,0.5 -0.9,0.9 -1.4,1.2 -0.6,0.3 -1.2,0.4 -1.9,0.4 -0.7,0 -1.2,-0.1 -1.7,-0.3 -0.5,-0.2 -0.9,-0.5 -1.2,-0.9 v 4.7 h -1.9 v -14.2 h 1.1 c 0.3,0 0.4,0.1 0.5,0.4 z m 0.1,6.5 c 0.3,0.5 0.7,0.8 1.1,1 0.4,0.2 0.9,0.3 1.4,0.3 1,0 1.8,-0.4 2.3,-1.1 0.5,-0.7 0.8,-1.7 0.8,-3 0,-0.7 -0.1,-1.3 -0.2,-1.8 -0.1,-0.5 -0.3,-0.9 -0.5,-1.2 -0.2,-0.3 -0.5,-0.6 -0.9,-0.7 -0.3,-0.1 -0.7,-0.2 -1.1,-0.2 -0.6,0 -1.1,0.1 -1.6,0.4 -0.5,0.3 -0.9,0.7 -1.3,1.2 z"
   id="path982"
   inkscape:connector-curvature="0"
   style="fill:#272733" />
	<path
   class="st8"
   d="m 94.8,168.9 c 0.6,-0.6 1.2,-1 1.9,-1.3 0.7,-0.3 1.4,-0.4 2.3,-0.4 0.6,0 1.1,0.1 1.6,0.3 0.5,0.2 0.9,0.5 1.2,0.8 0.3,0.4 0.6,0.8 0.7,1.3 0.2,0.5 0.2,1 0.2,1.6 v 6.8 h -0.8 c -0.2,0 -0.3,0 -0.4,-0.1 -0.1,-0.1 -0.2,-0.2 -0.2,-0.4 l -0.2,-1 c -0.3,0.3 -0.6,0.5 -0.8,0.7 -0.3,0.2 -0.5,0.4 -0.8,0.5 -0.3,0.1 -0.6,0.2 -0.9,0.3 -0.3,0.1 -0.7,0.1 -1.1,0.1 -0.4,0 -0.8,-0.1 -1.2,-0.2 -0.4,-0.1 -0.7,-0.3 -1,-0.5 -0.3,-0.2 -0.5,-0.5 -0.6,-0.9 -0.2,-0.4 -0.2,-0.8 -0.2,-1.3 0,-0.4 0.1,-0.8 0.3,-1.2 0.2,-0.4 0.6,-0.7 1.1,-1 0.5,-0.3 1.2,-0.5 2,-0.7 0.8,-0.2 1.9,-0.3 3.1,-0.3 v -0.8 c 0,-0.8 -0.2,-1.5 -0.5,-1.9 -0.3,-0.4 -0.9,-0.6 -1.6,-0.6 -0.5,0 -0.8,0.1 -1.2,0.2 -0.3,0.1 -0.6,0.2 -0.8,0.4 -0.2,0.1 -0.4,0.3 -0.6,0.4 -0.2,0.1 -0.3,0.2 -0.5,0.2 -0.1,0 -0.2,0 -0.3,-0.1 -0.1,-0.1 -0.2,-0.1 -0.2,-0.2 z m 6,4.3 c -0.9,0 -1.6,0.1 -2.2,0.2 -0.6,0.1 -1.1,0.2 -1.5,0.4 -0.4,0.2 -0.7,0.4 -0.8,0.6 -0.2,0.2 -0.3,0.5 -0.3,0.8 0,0.3 0,0.5 0.1,0.7 0.1,0.2 0.2,0.4 0.4,0.5 0.2,0.1 0.3,0.2 0.6,0.3 0.2,0.1 0.4,0.1 0.7,0.1 0.3,0 0.6,0 0.9,-0.1 0.3,-0.1 0.5,-0.2 0.8,-0.3 0.2,-0.1 0.5,-0.3 0.7,-0.5 0.2,-0.2 0.4,-0.4 0.6,-0.6 z"
   id="path984"
   inkscape:connector-curvature="0"
   style="fill:#272733" />
	<path
   class="st8"
   d="m 114.5,167.8 v 0.7 c 0,0.2 -0.1,0.4 -0.4,0.4 l -1.2,0.2 c 0.2,0.5 0.4,1 0.4,1.5 0,0.5 -0.1,1 -0.3,1.4 -0.2,0.4 -0.5,0.8 -0.8,1.1 -0.3,0.3 -0.8,0.5 -1.3,0.7 -0.5,0.2 -1,0.2 -1.6,0.2 -0.5,0 -1,-0.1 -1.4,-0.2 -0.2,0.1 -0.4,0.3 -0.5,0.4 -0.1,0.2 -0.2,0.3 -0.2,0.5 0,0.3 0.1,0.4 0.3,0.6 0.2,0.1 0.5,0.2 0.8,0.3 0.3,0.1 0.7,0.1 1.1,0.1 0.4,0 0.9,0 1.3,0.1 0.5,0 0.9,0.1 1.3,0.2 0.4,0.1 0.8,0.2 1.1,0.4 0.3,0.2 0.6,0.4 0.8,0.7 0.2,0.3 0.3,0.7 0.3,1.2 0,0.5 -0.1,0.9 -0.3,1.3 -0.2,0.4 -0.6,0.8 -1,1.1 -0.4,0.3 -1,0.6 -1.6,0.8 -0.6,0.2 -1.3,0.3 -2.1,0.3 -0.8,0 -1.5,-0.1 -2,-0.2 -0.5,-0.1 -1.1,-0.4 -1.4,-0.6 -0.4,-0.3 -0.7,-0.6 -0.9,-0.9 -0.2,-0.3 -0.3,-0.7 -0.3,-1.1 0,-0.5 0.2,-1 0.5,-1.3 0.3,-0.3 0.8,-0.7 1.4,-0.9 -0.3,-0.1 -0.6,-0.3 -0.8,-0.6 -0.2,-0.3 -0.3,-0.6 -0.3,-0.9 0,-0.2 0,-0.3 0.1,-0.5 0.1,-0.2 0.1,-0.3 0.3,-0.5 0.1,-0.2 0.3,-0.3 0.4,-0.5 0.1,-0.2 0.4,-0.3 0.6,-0.4 -0.5,-0.3 -0.9,-0.7 -1.2,-1.2 -0.3,-0.5 -0.4,-1.1 -0.4,-1.7 0,-0.5 0.1,-1 0.3,-1.4 0.2,-0.4 0.5,-0.8 0.8,-1.1 0.4,-0.3 0.8,-0.5 1.3,-0.7 0.5,-0.2 1,-0.2 1.6,-0.2 0.5,0 0.9,0.1 1.3,0.2 0.4,0.1 0.8,0.2 1.1,0.4 h 2.9 z m -1.9,10.8 c 0,-0.3 -0.1,-0.5 -0.2,-0.6 -0.1,-0.2 -0.3,-0.3 -0.6,-0.4 -0.2,-0.1 -0.5,-0.2 -0.9,-0.2 -0.3,0 -0.7,-0.1 -1,-0.1 -0.4,0 -0.7,0 -1.1,-0.1 -0.4,0 -0.7,-0.1 -1.1,-0.1 -0.4,0.2 -0.7,0.4 -1,0.7 -0.2,0.3 -0.4,0.6 -0.4,1 0,0.2 0.1,0.5 0.2,0.7 0.1,0.2 0.3,0.4 0.6,0.5 0.3,0.1 0.6,0.3 1,0.4 0.4,0.1 0.8,0.1 1.3,0.1 0.5,0 1,0 1.4,-0.1 0.4,-0.1 0.7,-0.2 1,-0.4 0.3,-0.2 0.5,-0.4 0.6,-0.6 0.1,-0.3 0.2,-0.5 0.2,-0.8 z m -3.4,-5.8 c 0.4,0 0.7,-0.1 1,-0.2 0.3,-0.1 0.5,-0.3 0.7,-0.4 0.2,-0.2 0.3,-0.4 0.4,-0.7 0.1,-0.3 0.1,-0.6 0.1,-0.9 0,-0.7 -0.2,-1.2 -0.6,-1.6 -0.4,-0.4 -1,-0.6 -1.7,-0.6 -0.8,0 -1.3,0.2 -1.7,0.6 -0.4,0.4 -0.6,0.9 -0.6,1.6 0,0.3 0.1,0.6 0.2,0.9 0.1,0.3 0.3,0.5 0.4,0.7 0.2,0.2 0.4,0.3 0.7,0.4 0.4,0.2 0.7,0.2 1.1,0.2 z"
   id="path986"
   inkscape:connector-curvature="0"
   style="fill:#272733" />
	<path
   class="st8"
   d="m 124.9,176.5 c -0.2,0.3 -0.5,0.5 -0.8,0.7 -0.3,0.2 -0.7,0.4 -1,0.5 -0.4,0.1 -0.7,0.2 -1.1,0.3 -0.4,0.1 -0.8,0.1 -1.2,0.1 -0.7,0 -1.4,-0.1 -2,-0.4 -0.6,-0.2 -1.2,-0.6 -1.6,-1.1 -0.5,-0.5 -0.8,-1.1 -1.1,-1.8 -0.3,-0.7 -0.4,-1.5 -0.4,-2.4 0,-0.7 0.1,-1.4 0.3,-2.1 0.2,-0.6 0.6,-1.2 1,-1.7 0.4,-0.5 0.9,-0.8 1.6,-1.1 0.6,-0.3 1.3,-0.4 2.1,-0.4 0.6,0 1.2,0.1 1.8,0.3 0.5,0.2 1,0.5 1.4,0.9 0.4,0.4 0.7,0.9 0.9,1.5 0.2,0.6 0.3,1.3 0.3,2 0,0.3 0,0.5 -0.1,0.6 -0.1,0.1 -0.2,0.1 -0.4,0.1 h -7.1 c 0,0.7 0.1,1.3 0.3,1.8 0.2,0.5 0.4,0.9 0.7,1.2 0.3,0.3 0.6,0.6 1,0.7 0.4,0.2 0.9,0.2 1.4,0.2 0.5,0 0.9,-0.1 1.2,-0.2 0.3,-0.1 0.6,-0.2 0.9,-0.4 0.2,-0.1 0.4,-0.2 0.6,-0.4 0.2,-0.1 0.3,-0.2 0.4,-0.2 0.2,0 0.3,0.1 0.4,0.2 z m -1.5,-5 c 0,-0.4 -0.1,-0.8 -0.2,-1.2 -0.1,-0.4 -0.3,-0.7 -0.5,-0.9 -0.2,-0.3 -0.5,-0.5 -0.9,-0.6 -0.3,-0.1 -0.7,-0.2 -1.1,-0.2 -0.9,0 -1.6,0.3 -2.1,0.8 -0.5,0.5 -0.8,1.2 -1,2.2 h 5.8 z"
   id="path988"
   inkscape:connector-curvature="0"
   style="fill:#272733" />
</g>
<g
   class="st7"
   id="g1006"
   style="enable-background:new"
   transform="translate(-1.3,-1)">
	<path
   class="st8"
   d="m 374.3,163 v 15 h -1 c -0.2,0 -0.3,0 -0.4,-0.1 -0.1,-0.1 -0.2,-0.2 -0.3,-0.3 l -8.7,-11.3 c 0,0.2 0,0.3 0,0.5 0,0.2 0,0.3 0,0.5 V 178 h -1.8 v -15 h 1.1 c 0.1,0 0.2,0 0.2,0 0.1,0 0.1,0 0.2,0.1 0,0 0.1,0.1 0.1,0.1 0,0 0.1,0.1 0.2,0.2 l 8.7,11.3 c 0,-0.2 0,-0.4 0,-0.5 0,-0.2 0,-0.3 0,-0.5 V 163 Z"
   id="path992"
   inkscape:connector-curvature="0"
   style="fill:#272733" />
	<path
   class="st8"
   d="m 386,176.5 c -0.2,0.3 -0.5,0.5 -0.8,0.7 -0.3,0.2 -0.7,0.4 -1,0.5 -0.4,0.1 -0.7,0.2 -1.1,0.3 -0.4,0.1 -0.8,0.1 -1.2,0.1 -0.7,0 -1.4,-0.1 -2,-0.4 -0.6,-0.2 -1.2,-0.6 -1.6,-1.1 -0.5,-0.5 -0.8,-1.1 -1.1,-1.8 -0.3,-0.7 -0.4,-1.5 -0.4,-2.4 0,-0.7 0.1,-1.4 0.3,-2.1 0.2,-0.6 0.6,-1.2 1,-1.7 0.4,-0.5 0.9,-0.8 1.6,-1.1 0.7,-0.3 1.3,-0.4 2.1,-0.4 0.6,0 1.2,0.1 1.8,0.3 0.5,0.2 1,0.5 1.4,0.9 0.4,0.4 0.7,0.9 0.9,1.5 0.2,0.6 0.3,1.3 0.3,2 0,0.3 0,0.5 -0.1,0.6 -0.1,0.1 -0.2,0.1 -0.4,0.1 h -7.1 c 0,0.7 0.1,1.3 0.3,1.8 0.2,0.5 0.4,0.9 0.7,1.2 0.3,0.3 0.6,0.6 1,0.7 0.4,0.2 0.9,0.2 1.4,0.2 0.5,0 0.9,-0.1 1.2,-0.2 0.3,-0.1 0.6,-0.2 0.9,-0.4 0.2,-0.1 0.5,-0.2 0.6,-0.4 0.2,-0.1 0.3,-0.2 0.4,-0.2 0.2,0 0.3,0.1 0.4,0.2 z m -1.5,-5 c 0,-0.4 -0.1,-0.8 -0.2,-1.2 -0.1,-0.4 -0.3,-0.7 -0.5,-0.9 -0.2,-0.3 -0.5,-0.5 -0.9,-0.6 -0.3,-0.1 -0.7,-0.2 -1.1,-0.2 -0.9,0 -1.6,0.3 -2.1,0.8 -0.5,0.5 -0.8,1.2 -1,2.2 h 5.8 z"
   id="path994"
   inkscape:connector-curvature="0"
   style="fill:#272733" />
	<path
   class="st8"
   d="m 403,167.4 -3.4,10.6 h -1.5 c -0.2,0 -0.3,-0.1 -0.4,-0.4 l -2.4,-7.2 c -0.1,-0.2 -0.1,-0.3 -0.1,-0.5 0,-0.2 -0.1,-0.3 -0.1,-0.5 0,0.2 -0.1,0.3 -0.1,0.5 0,0.2 -0.1,0.3 -0.1,0.5 l -2.4,7.2 c -0.1,0.2 -0.2,0.4 -0.4,0.4 h -1.4 l -3.4,-10.6 h 1.5 c 0.1,0 0.3,0 0.4,0.1 0.1,0.1 0.2,0.2 0.2,0.3 l 2,6.8 c 0.1,0.5 0.2,1 0.3,1.4 0.1,-0.2 0.1,-0.5 0.2,-0.7 0.1,-0.2 0.1,-0.5 0.2,-0.7 l 2.2,-6.9 c 0,-0.1 0.1,-0.2 0.2,-0.3 0.1,-0.1 0.2,-0.1 0.3,-0.1 h 0.8 c 0.1,0 0.3,0 0.3,0.1 0.1,0.1 0.2,0.2 0.2,0.3 l 2.2,6.9 c 0.1,0.2 0.1,0.5 0.2,0.7 0.1,0.2 0.1,0.5 0.2,0.7 0,-0.2 0.1,-0.5 0.1,-0.7 0,-0.2 0.1,-0.5 0.2,-0.7 l 2.1,-6.8 c 0,-0.1 0.1,-0.2 0.2,-0.3 0.1,-0.1 0.2,-0.1 0.3,-0.1 z"
   id="path996"
   inkscape:connector-curvature="0"
   style="fill:#272733" />
	<path
   class="st8"
   d="m 411.6,169 c 0.4,-0.6 1,-1 1.6,-1.3 0.6,-0.3 1.3,-0.5 2,-0.5 0.6,0 1.2,0.1 1.7,0.4 0.5,0.3 0.9,0.6 1.3,1 0.4,0.5 0.6,1 0.8,1.7 0.2,0.7 0.3,1.5 0.3,2.3 0,0.8 -0.1,1.5 -0.3,2.2 -0.2,0.7 -0.5,1.3 -0.9,1.8 -0.4,0.5 -0.9,0.9 -1.4,1.2 -0.5,0.3 -1.2,0.4 -1.9,0.4 -0.7,0 -1.2,-0.1 -1.7,-0.3 -0.5,-0.2 -0.9,-0.5 -1.2,-0.9 v 4.7 H 410 v -14.2 h 1.1 c 0.3,0 0.4,0.1 0.5,0.4 z m 0.1,6.5 c 0.3,0.5 0.7,0.8 1.1,1 0.4,0.2 0.9,0.3 1.4,0.3 1,0 1.8,-0.4 2.3,-1.1 0.5,-0.7 0.8,-1.7 0.8,-3 0,-0.7 -0.1,-1.3 -0.2,-1.8 -0.1,-0.5 -0.3,-0.9 -0.5,-1.2 -0.2,-0.3 -0.5,-0.6 -0.9,-0.7 -0.3,-0.1 -0.7,-0.2 -1.1,-0.2 -0.6,0 -1.1,0.1 -1.6,0.4 -0.5,0.3 -0.9,0.7 -1.3,1.2 z"
   id="path998"
   inkscape:connector-curvature="0"
   style="fill:#272733" />
	<path
   class="st8"
   d="m 421.3,168.9 c 0.6,-0.6 1.2,-1 1.9,-1.3 0.7,-0.3 1.4,-0.4 2.3,-0.4 0.6,0 1.1,0.1 1.6,0.3 0.5,0.2 0.8,0.5 1.2,0.8 0.3,0.4 0.6,0.8 0.7,1.3 0.1,0.5 0.2,1 0.2,1.6 v 6.8 h -0.8 c -0.2,0 -0.3,0 -0.4,-0.1 -0.1,-0.1 -0.2,-0.2 -0.2,-0.4 l -0.2,-1 c -0.3,0.3 -0.6,0.5 -0.8,0.7 -0.3,0.2 -0.5,0.4 -0.8,0.5 -0.3,0.1 -0.6,0.2 -0.9,0.3 -0.3,0.1 -0.7,0.1 -1.1,0.1 -0.4,0 -0.8,-0.1 -1.2,-0.2 -0.4,-0.1 -0.7,-0.3 -1,-0.5 -0.3,-0.2 -0.5,-0.5 -0.6,-0.9 -0.2,-0.4 -0.2,-0.8 -0.2,-1.3 0,-0.4 0.1,-0.8 0.3,-1.2 0.2,-0.4 0.6,-0.7 1.1,-1 0.5,-0.3 1.2,-0.5 2,-0.7 0.8,-0.2 1.9,-0.3 3.1,-0.3 v -0.8 c 0,-0.8 -0.2,-1.5 -0.5,-1.9 -0.4,-0.4 -0.9,-0.6 -1.6,-0.6 -0.5,0 -0.8,0.1 -1.2,0.2 -0.3,0.1 -0.6,0.2 -0.8,0.4 -0.2,0.1 -0.4,0.3 -0.6,0.4 -0.2,0.1 -0.3,0.2 -0.5,0.2 -0.1,0 -0.2,0 -0.3,-0.1 -0.1,-0.1 -0.2,-0.1 -0.2,-0.2 z m 6,4.3 c -0.9,0 -1.6,0.1 -2.2,0.2 -0.6,0.1 -1.1,0.2 -1.5,0.4 -0.4,0.2 -0.7,0.4 -0.8,0.6 -0.2,0.2 -0.3,0.5 -0.3,0.8 0,0.3 0,0.5 0.1,0.7 0.1,0.2 0.2,0.4 0.4,0.5 0.2,0.1 0.3,0.2 0.6,0.3 0.2,0.1 0.4,0.1 0.7,0.1 0.3,0 0.6,0 0.9,-0.1 0.3,-0.1 0.5,-0.2 0.8,-0.3 0.2,-0.1 0.5,-0.3 0.7,-0.5 0.2,-0.2 0.4,-0.4 0.6,-0.6 z"
   id="path1000"
   inkscape:connector-curvature="0"
   style="fill:#272733" />
	<path
   class="st8"
   d="m 441,167.8 v 0.7 c 0,0.2 -0.1,0.4 -0.4,0.4 l -1.2,0.2 c 0.2,0.5 0.4,1 0.4,1.5 0,0.5 -0.1,1 -0.3,1.4 -0.2,0.4 -0.5,0.8 -0.8,1.1 -0.3,0.3 -0.8,0.5 -1.3,0.7 -0.5,0.2 -1,0.2 -1.6,0.2 -0.5,0 -1,-0.1 -1.4,-0.2 -0.2,0.1 -0.4,0.3 -0.5,0.4 -0.1,0.2 -0.2,0.3 -0.2,0.5 0,0.3 0.1,0.4 0.3,0.6 0.2,0.1 0.5,0.2 0.8,0.3 0.3,0.1 0.7,0.1 1.1,0.1 0.4,0 0.9,0 1.3,0.1 0.4,0.1 0.9,0.1 1.3,0.2 0.4,0.1 0.8,0.2 1.1,0.4 0.3,0.2 0.6,0.4 0.8,0.7 0.2,0.3 0.3,0.7 0.3,1.2 0,0.5 -0.1,0.9 -0.3,1.3 -0.2,0.4 -0.6,0.8 -1,1.1 -0.4,0.3 -1,0.6 -1.6,0.8 -0.6,0.2 -1.3,0.3 -2.1,0.3 -0.8,0 -1.5,-0.1 -2,-0.2 -0.5,-0.1 -1.1,-0.4 -1.4,-0.6 -0.4,-0.3 -0.7,-0.6 -0.9,-0.9 -0.2,-0.3 -0.3,-0.7 -0.3,-1.1 0,-0.5 0.2,-1 0.5,-1.3 0.3,-0.3 0.8,-0.7 1.4,-0.9 -0.3,-0.1 -0.6,-0.3 -0.8,-0.6 -0.2,-0.3 -0.3,-0.6 -0.3,-0.9 0,-0.2 0,-0.3 0.1,-0.5 0.1,-0.2 0.1,-0.3 0.3,-0.5 0.1,-0.2 0.3,-0.3 0.4,-0.5 0.1,-0.2 0.4,-0.3 0.6,-0.4 -0.5,-0.3 -0.9,-0.7 -1.2,-1.2 -0.3,-0.5 -0.4,-1.1 -0.4,-1.7 0,-0.5 0.1,-1 0.3,-1.4 0.2,-0.4 0.5,-0.8 0.8,-1.1 0.4,-0.3 0.8,-0.5 1.3,-0.7 0.5,-0.2 1,-0.2 1.6,-0.2 0.5,0 0.9,0.1 1.3,0.2 0.4,0.1 0.8,0.2 1.1,0.4 h 2.9 z m -1.9,10.8 c 0,-0.3 -0.1,-0.5 -0.2,-0.6 -0.1,-0.2 -0.3,-0.3 -0.6,-0.4 -0.2,-0.1 -0.5,-0.2 -0.9,-0.2 -0.3,0 -0.7,-0.1 -1,-0.1 -0.4,0 -0.7,0 -1.1,-0.1 -0.4,0 -0.7,-0.1 -1.1,-0.1 -0.4,0.2 -0.7,0.4 -1,0.7 -0.2,0.3 -0.4,0.6 -0.4,1 0,0.2 0.1,0.5 0.2,0.7 0.1,0.2 0.3,0.4 0.6,0.5 0.3,0.1 0.6,0.3 1,0.4 0.4,0.1 0.8,0.1 1.3,0.1 0.5,0 1,0 1.4,-0.1 0.4,-0.1 0.7,-0.2 1,-0.4 0.3,-0.2 0.5,-0.4 0.6,-0.6 0.1,-0.3 0.2,-0.5 0.2,-0.8 z m -3.4,-5.8 c 0.4,0 0.7,-0.1 1,-0.2 0.3,-0.1 0.5,-0.3 0.7,-0.4 0.2,-0.2 0.3,-0.4 0.4,-0.7 0.1,-0.3 0.1,-0.6 0.1,-0.9 0,-0.7 -0.2,-1.2 -0.6,-1.6 -0.4,-0.4 -1,-0.6 -1.7,-0.6 -0.8,0 -1.3,0.2 -1.7,0.6 -0.4,0.4 -0.6,0.9 -0.6,1.6 0,0.3 0,0.6 0.2,0.9 0.2,0.3 0.3,0.5 0.4,0.7 0.2,0.2 0.4,0.3 0.7,0.4 0.4,0.2 0.7,0.2 1.1,0.2 z"
   id="path1002"
   inkscape:connector-curvature="0"
   style="fill:#272733" />
	<path
   class="st8"
   d="m 451.4,176.5 c -0.2,0.3 -0.5,0.5 -0.8,0.7 -0.3,0.2 -0.7,0.4 -1,0.5 -0.3,0.1 -0.7,0.2 -1.1,0.3 -0.4,0.1 -0.8,0.1 -1.2,0.1 -0.7,0 -1.4,-0.1 -2,-0.4 -0.6,-0.2 -1.2,-0.6 -1.6,-1.1 -0.5,-0.5 -0.8,-1.1 -1.1,-1.8 -0.3,-0.7 -0.4,-1.5 -0.4,-2.4 0,-0.7 0.1,-1.4 0.3,-2.1 0.2,-0.6 0.6,-1.2 1,-1.7 0.4,-0.5 0.9,-0.8 1.6,-1.1 0.6,-0.3 1.3,-0.4 2.1,-0.4 0.6,0 1.2,0.1 1.8,0.3 0.5,0.2 1,0.5 1.4,0.9 0.4,0.4 0.7,0.9 0.9,1.5 0.2,0.6 0.3,1.3 0.3,2 0,0.3 0,0.5 -0.1,0.6 -0.1,0.1 -0.2,0.1 -0.4,0.1 H 444 c 0,0.7 0.1,1.3 0.3,1.8 0.2,0.5 0.4,0.9 0.7,1.2 0.3,0.3 0.6,0.6 1,0.7 0.4,0.2 0.9,0.2 1.4,0.2 0.5,0 0.9,-0.1 1.2,-0.2 0.3,-0.1 0.6,-0.2 0.9,-0.4 0.2,-0.1 0.4,-0.2 0.6,-0.4 0.2,-0.1 0.3,-0.2 0.4,-0.2 0.2,0 0.3,0.1 0.4,0.2 z m -1.5,-5 c 0,-0.4 -0.1,-0.8 -0.2,-1.2 -0.1,-0.4 -0.3,-0.7 -0.5,-0.9 -0.2,-0.3 -0.5,-0.5 -0.9,-0.6 -0.3,-0.1 -0.7,-0.2 -1.1,-0.2 -0.9,0 -1.6,0.3 -2.1,0.8 -0.5,0.5 -0.8,1.2 -1,2.2 h 5.8 z"
   id="path1004"
   inkscape:connector-curvature="0"
   style="fill:#272733" />
</g>
<polygon
   class="st9"
   points="33.2,125.7 71.8,87.2 33.2,48.7 45.8,36 84.3,74.6 122.9,36 135.4,48.7 96.9,87.2 135.4,125.7 122.9,138.2 84.3,99.7 45.8,138.2 "
   id="polygon1008"
   style="fill:#fc4949"
   transform="translate(-1.3,-1)" />
<path
   class="st1"
   d="m 121.6,37.9 9.7,9.8 -38.6,38.5 38.5,38.5 -9.7,9.7 L 83,95.9 44.5,134.4 34.8,124.7 73.3,86.2 34.7,47.7 44.4,37.9 82.9,76.4 121.6,37.9 m 0,-5.7 L 118.7,35 83,70.8 47.3,35.1 44.5,32.3 41.7,35.1 32,44.9 29.2,47.7 32,50.5 67.7,86.1 32,121.8 l -2.8,2.8 2.8,2.8 9.8,9.7 2.8,2.8 2.8,-2.8 35.7,-35.7 35.6,35.7 2.8,2.8 2.8,-2.8 9.7,-9.7 2.8,-2.8 -2.8,-2.8 -35.6,-35.6 35.7,-35.6 2.8,-2.8 -2.8,-2.8 -9.7,-9.8 z"
   id="path1010"
   inkscape:connector-curvature="0"
   style="fill:#ffffff" />
<g
   class="st7"
   id="g1018"
   style="enable-background:new"
   transform="translate(-1.3,-1)">
	<path
   class="st10"
   d="m 229.4,88.8 c 0.1,-0.7 0.3,-1.2 0.6,-1.8 0.3,-0.6 0.6,-0.9 1,-1.3 0.4,-0.3 0.9,-0.6 1.4,-0.7 0.5,-0.2 1.1,-0.2 1.7,-0.2 0.7,0 1.2,0.1 1.8,0.3 0.5,0.2 1,0.4 1.3,0.8 0.4,0.3 0.6,0.7 0.8,1.1 0.2,0.4 0.3,0.9 0.3,1.4 0,0.4 0,0.8 -0.1,1.1 -0.1,0.3 -0.2,0.6 -0.4,0.9 -0.2,0.2 -0.4,0.5 -0.7,0.6 -0.3,0.2 -0.6,0.3 -0.9,0.4 1.6,0.5 2.4,1.6 2.4,3.1 0,0.7 -0.1,1.3 -0.4,1.8 -0.3,0.5 -0.6,1 -1,1.3 -0.4,0.4 -0.9,0.6 -1.5,0.8 -0.6,0.2 -1.2,0.3 -1.8,0.3 -0.7,0 -1.3,-0.1 -1.8,-0.2 -0.5,-0.1 -1,-0.4 -1.3,-0.7 -0.3,-0.3 -0.7,-0.7 -1,-1.1 -0.3,-0.5 -0.5,-1 -0.7,-1.6 l 1.1,-0.5 c 0.3,-0.1 0.6,-0.2 0.8,-0.1 0.3,0.1 0.4,0.2 0.6,0.4 0.1,0.2 0.3,0.5 0.4,0.7 0.1,0.2 0.3,0.4 0.5,0.5 0.2,0.1 0.4,0.3 0.6,0.3 0.2,0 0.5,0.1 0.8,0.1 0.4,0 0.7,-0.1 1,-0.2 0.3,-0.1 0.5,-0.3 0.7,-0.5 0.2,-0.2 0.3,-0.4 0.4,-0.6 0.1,-0.2 0.1,-0.5 0.1,-0.7 0,-0.3 0,-0.6 -0.1,-0.9 -0.1,-0.3 -0.2,-0.5 -0.4,-0.6 -0.2,-0.2 -0.5,-0.3 -0.9,-0.4 -0.4,-0.1 -0.9,-0.1 -1.6,-0.1 v -1.8 c 0.6,0 1,0 1.4,-0.1 0.4,-0.1 0.6,-0.2 0.9,-0.4 0.2,-0.2 0.3,-0.4 0.4,-0.6 0.1,-0.2 0.1,-0.5 0.1,-0.8 0,-0.6 -0.2,-1.1 -0.5,-1.4 -0.3,-0.3 -0.8,-0.5 -1.3,-0.5 -0.3,0 -0.5,0 -0.7,0.1 -0.2,0.1 -0.4,0.2 -0.6,0.3 -0.2,0.1 -0.3,0.3 -0.4,0.4 -0.1,0.2 -0.2,0.4 -0.3,0.6 -0.1,0.3 -0.3,0.5 -0.5,0.6 -0.2,0.1 -0.5,0.1 -0.8,0.1 z"
   id="path1012"
   inkscape:connector-curvature="0"
   style="fill:#009ceb" />
	<path
   class="st10"
   d="m 249.9,91.7 c 0,1.2 -0.1,2.2 -0.4,3.1 -0.3,0.9 -0.6,1.6 -1.1,2.2 -0.5,0.6 -1,1 -1.6,1.3 -0.6,0.3 -1.3,0.4 -2,0.4 -0.7,0 -1.4,-0.1 -2,-0.4 -0.6,-0.3 -1.1,-0.7 -1.6,-1.3 -0.4,-0.6 -0.8,-1.3 -1,-2.2 -0.3,-0.9 -0.4,-1.9 -0.4,-3.1 0,-1.2 0.1,-2.2 0.4,-3.1 0.3,-0.9 0.6,-1.6 1,-2.2 0.4,-0.6 1,-1 1.6,-1.3 0.6,-0.3 1.3,-0.4 2,-0.4 0.7,0 1.4,0.1 2,0.4 0.6,0.3 1.2,0.7 1.6,1.3 0.5,0.6 0.8,1.3 1.1,2.2 0.3,0.9 0.4,2 0.4,3.1 z m -2.7,0 c 0,-1 -0.1,-1.8 -0.2,-2.4 -0.1,-0.6 -0.3,-1.1 -0.5,-1.5 -0.2,-0.4 -0.5,-0.6 -0.8,-0.8 -0.3,-0.1 -0.6,-0.2 -0.9,-0.2 -0.3,0 -0.6,0.1 -0.9,0.2 -0.3,0.1 -0.5,0.4 -0.7,0.8 -0.2,0.4 -0.4,0.9 -0.5,1.5 -0.1,0.6 -0.2,1.4 -0.2,2.4 0,1 0.1,1.8 0.2,2.4 0.1,0.6 0.3,1.1 0.5,1.5 0.2,0.4 0.5,0.6 0.7,0.8 0.3,0.1 0.6,0.2 0.9,0.2 0.3,0 0.6,-0.1 0.9,-0.2 0.3,-0.1 0.5,-0.4 0.8,-0.8 0.3,-0.4 0.4,-0.9 0.5,-1.5 0.1,-0.6 0.2,-1.4 0.2,-2.4 z"
   id="path1014"
   inkscape:connector-curvature="0"
   style="fill:#009ceb" />
	<path
   class="st10"
   d="m 260.1,96.7 v 1.9 h -7.7 v -1.9 h 2.7 v -7.5 c 0,-0.2 0,-0.3 0,-0.5 0,-0.2 0,-0.3 0,-0.5 l -1.8,1.5 c -0.1,0.1 -0.2,0.2 -0.4,0.2 -0.2,0 -0.2,0 -0.3,0 -0.1,0 -0.2,-0.1 -0.3,-0.1 -0.1,-0.1 -0.1,-0.1 -0.2,-0.2 l -0.8,-1.1 4.2,-3.6 h 2.1 v 11.8 z"
   id="path1016"
   inkscape:connector-curvature="0"
   style="fill:#009ceb" />
</g>
</svg>